<svg width="60" height="60" viewBox="0 0 60 60" fill="none" xmlns="http://www.w3.org/2000/svg">
<path d="M50.6814 16.8654C50.6814 17.1841 50.5548 17.4889 50.3298 17.7139C50.1048 17.9389 49.8002 18.0654 49.4814 18.0654H23.2032C22.5399 18.0654 22.0032 17.5287 22.0032 16.8654C22.0032 16.2021 22.5399 15.6654 23.2032 15.6654H49.4838H49.4814C49.8002 15.6654 50.1049 15.792 50.3299 16.017C50.5549 16.242 50.6814 16.5466 50.6814 16.8654ZM23.2032 24.6H31.1112C31.7722 24.6 32.3112 24.0633 32.3112 23.4C32.3112 22.7367 31.7721 22.2 31.1112 22.2H23.2032C22.5399 22.2 22.0032 22.7367 22.0032 23.4C22.0032 24.0633 22.5399 24.6 23.2032 24.6ZM23.2032 31.1154H31.1112C31.7722 31.1154 32.3112 30.5787 32.3112 29.9154C32.3112 29.2521 31.7721 28.7154 31.1112 28.7154H23.2032C22.5399 28.7154 22.0032 29.2521 22.0032 29.9154C22.0032 30.5787 22.5399 31.1154 23.2032 31.1154ZM23.2032 37.6308H31.1112C31.7722 37.6308 32.3112 37.0941 32.3112 36.4308C32.3112 35.7698 31.7721 35.2308 31.1112 35.2308H23.2032C22.5399 35.2308 22.0032 35.7699 22.0032 36.4308C22.0032 37.0941 22.5399 37.6308 23.2032 37.6308ZM49.4838 41.7464H23.2032C22.5399 41.7464 22.0032 42.2855 22.0032 42.9464C22.0032 43.6097 22.5399 44.1464 23.2032 44.1464H49.4838H49.4815C50.1448 44.1464 50.6815 43.6097 50.6815 42.9464C50.6815 42.2855 50.1447 41.7464 49.4815 41.7464H49.4838ZM50.6838 23.3924L50.6815 36.419C50.6815 36.7378 50.5549 37.0425 50.3299 37.2675C50.1049 37.4925 49.8002 37.6191 49.4814 37.6191H37.8C37.1367 37.6191 36.6 37.0823 36.6 36.4191V23.3997C36.6 22.7364 37.1367 22.1997 37.8 22.1997H49.4814C49.8002 22.1997 50.1049 22.3262 50.3299 22.5512C50.5549 22.7762 50.6815 23.0809 50.6815 23.3997L50.6838 23.3924ZM48.2838 24.5924H39V35.219H48.2814L48.2838 24.5924ZM1.308 44.8496V21.4496C1.308 20.7863 1.84472 20.2496 2.508 20.2496C3.1713 20.2496 3.708 20.7864 3.708 21.4496V44.8496C3.80175 47.62 6.07518 49.816 8.84784 49.816C11.6182 49.816 13.8916 47.6199 13.9853 44.8496V8.80764C13.9853 8.14434 14.5244 7.60764 15.1853 7.60764H57.4853C57.8041 7.60764 58.1088 7.7342 58.3338 7.9592C58.5588 8.1842 58.6854 8.48888 58.6854 8.80766V45.9189C58.6877 47.6368 58.0057 49.2868 56.7869 50.5009C55.5705 51.7173 53.9205 52.397 52.2002 52.3923H8.8502C4.68536 52.3899 1.3106 49.0149 1.3082 44.8503L1.308 44.8496ZM14.358 49.9918H52.2C54.4477 49.9918 56.2687 48.1707 56.2687 45.9231V10.0077H16.3921V44.8497C16.3945 46.7599 15.6679 48.5974 14.3648 49.9919L14.358 49.9918ZM7.65 21.703V44.8312C7.65 45.4945 8.18672 46.0312 8.85 46.0312C9.51328 46.0312 10.05 45.4945 10.05 44.8312V21.703C10.05 21.0397 9.51328 20.503 8.85 20.503C8.18672 20.503 7.65 21.0397 7.65 21.703Z" fill="url(#paint0_linear_27_64)"/>
<defs>
<linearGradient id="paint0_linear_27_64" x1="29.9967" y1="7.60764" x2="29.9967" y2="52.3923" gradientUnits="userSpaceOnUse">
<stop stop-color="#3391FF"/>
<stop offset="1" stop-color="#7636FE"/>
</linearGradient>
</defs>
</svg>
