<svg width="69" height="69" viewBox="0 0 69 69" fill="none" xmlns="http://www.w3.org/2000/svg">
<path d="M30.9362 64.3032H9.47687C6.28081 64.3032 3.65547 62.0203 3.54132 58.596C3.65547 56.6555 5.82422 55.6282 6.73739 55.1716L15.6407 51.4048C16.0973 51.2907 16.3256 51.2907 16.3256 50.72C15.4124 49.5785 12.5588 45.8117 12.5588 42.6157C12.5588 37.365 16.0973 33.1416 20.549 33.1416C25.0006 33.1416 28.5391 37.365 28.5391 42.6157C28.5391 45.9259 25.5713 49.6927 24.544 50.8341C24.544 51.519 24.6582 51.519 25.0006 51.6331L33.5615 54.6009C35.1595 55.1716 36.6434 57.2262 36.7576 58.8243C36.6434 61.9062 34.1322 64.3032 30.9362 64.3032ZM16.3256 53.5736L7.65055 57.3404C6.5091 57.9111 5.82422 58.596 5.82422 58.9384C5.82422 60.6506 7.5364 62.0203 9.47687 62.0203H30.9362C32.8766 62.0203 34.3605 60.6506 34.3605 58.8243C34.3605 58.1394 33.4474 56.9979 32.7625 56.6555L24.2016 53.6877C22.147 53.0029 22.0328 51.519 22.147 50.1492V49.8068L22.3753 49.5785C23.4026 48.4371 26.0279 45.0127 26.0279 42.6157C26.0279 38.7347 23.4026 35.4245 20.3207 35.4245C17.2387 35.4245 14.6134 38.7347 14.6134 42.6157C14.6134 45.0127 17.1246 48.4371 18.1519 49.5785L18.3802 49.9209V50.2634C18.6085 52.0897 17.9236 53.117 16.3256 53.5736Z" fill="url(#paint0_linear_27_95)"/>
<path d="M34.703 38.164C34.3605 38.164 34.0181 38.0499 33.7898 37.9357C32.5342 37.1367 33.1049 35.3104 33.6756 33.3699C33.9039 32.6851 34.2464 31.6577 34.2464 31.2012C31.3927 28.2334 29.7947 24.3525 29.7947 20.4715C29.7947 11.3399 38.0132 3.92047 48.0579 3.92047C58.1027 3.92047 66.3212 11.3399 66.3212 20.4715C66.3212 29.6031 58.1027 36.9084 48.0579 36.9084C45.5467 36.9084 43.1497 36.4518 40.9809 35.6528C40.5244 35.767 39.2688 36.3377 38.4697 36.7943C36.6434 37.5933 35.6161 38.164 34.703 38.164ZM48.0579 6.08923C39.2688 6.08923 32.0776 12.4814 32.0776 20.3574C32.0776 23.7817 33.4474 27.0919 35.9585 29.7173C36.8717 30.6304 36.4151 32.2285 35.8444 34.0548C35.7303 34.5114 35.502 35.1962 35.3878 35.767C35.9585 35.5387 36.8717 35.0821 37.4424 34.8538C39.6112 33.7124 40.8668 33.2558 41.78 33.5982C43.8346 34.3972 46.0033 34.7397 48.1721 34.7397C56.9613 34.7397 64.1524 28.3475 64.1524 20.4715C64.1524 12.5955 56.8471 6.08923 48.0579 6.08923Z" fill="url(#paint1_linear_27_95)"/>
<path d="M41.2092 15.2209H54.9067V17.5038H41.2092V15.2209Z" fill="url(#paint2_linear_27_95)"/>
<path d="M41.2092 19.7866H54.9067V22.0695H41.2092V19.7866Z" fill="url(#paint3_linear_27_95)"/>
<path d="M41.2092 24.3525H54.9067V26.6354H41.2092V24.3525Z" fill="url(#paint4_linear_27_95)"/>
<defs>
<linearGradient id="paint0_linear_27_95" x1="20.1494" y1="33.1416" x2="20.1494" y2="64.3032" gradientUnits="userSpaceOnUse">
<stop stop-color="#3391FF"/>
<stop offset="1" stop-color="#7636FE"/>
</linearGradient>
<linearGradient id="paint1_linear_27_95" x1="48.0579" y1="3.92047" x2="48.0579" y2="38.164" gradientUnits="userSpaceOnUse">
<stop stop-color="#3391FF"/>
<stop offset="1" stop-color="#7636FE"/>
</linearGradient>
<linearGradient id="paint2_linear_27_95" x1="48.0579" y1="15.2209" x2="48.0579" y2="17.5038" gradientUnits="userSpaceOnUse">
<stop stop-color="#3391FF"/>
<stop offset="1" stop-color="#7636FE"/>
</linearGradient>
<linearGradient id="paint3_linear_27_95" x1="48.0579" y1="19.7866" x2="48.0579" y2="22.0695" gradientUnits="userSpaceOnUse">
<stop stop-color="#3391FF"/>
<stop offset="1" stop-color="#7636FE"/>
</linearGradient>
<linearGradient id="paint4_linear_27_95" x1="48.0579" y1="24.3525" x2="48.0579" y2="26.6354" gradientUnits="userSpaceOnUse">
<stop stop-color="#3391FF"/>
<stop offset="1" stop-color="#7636FE"/>
</linearGradient>
</defs>
</svg>
