<svg width="52" height="52" viewBox="0 0 52 52" fill="none" xmlns="http://www.w3.org/2000/svg">
<path d="M42.0732 30.6311H35.8228V30.0847C35.8228 28.5146 34.5492 27.2369 32.979 27.2268C36.1945 26.1401 40.8258 23.8183 40.8258 21.4906V20.6355C40.8258 19.24 40.2104 17.9867 39.2414 17.1235C40.2104 16.2602 40.8258 15.0069 40.8258 13.6094V12.7563C40.8258 11.3588 40.2104 10.1055 39.2414 9.24224C40.2104 8.37893 40.8258 7.12568 40.8258 5.73021L40.8279 4.87507C40.8279 2.27913 38.7154 0.166626 36.1194 0.166626H15.9408C13.3449 0.166626 11.2324 2.27913 11.2324 4.87507V5.73021C11.2324 7.12568 11.8478 8.37899 12.8168 9.24224C11.8478 10.1055 11.2324 11.3588 11.2324 12.7563V13.6094C11.2324 15.0069 11.8478 16.2602 12.8168 17.1235C11.8478 17.9868 11.2324 19.24 11.2324 20.6355V21.4906C11.2324 23.8185 15.8636 26.1402 19.0792 27.2268C17.509 27.2369 16.2354 28.5146 16.2354 30.0847V30.6311L9.98707 30.6291C9.32693 30.6291 8.79065 31.1653 8.79065 31.8255V50.8014C8.79065 51.4615 9.32688 51.9978 9.98707 51.9978H42.0706C42.7307 51.9978 43.267 51.4616 43.267 50.8014L43.269 31.8276C43.269 31.1654 42.7328 30.6312 42.0726 30.6312L42.0732 30.6311ZM13.6256 21.4297V20.6355C13.6256 19.3599 14.6635 18.3199 15.9412 18.3199C16.6013 18.3199 17.1376 17.7837 17.1376 17.1235C17.1376 16.4634 16.6014 15.9271 15.9412 15.9271C14.6656 15.9271 13.6256 14.8871 13.6256 13.6095V12.7563C13.6256 11.4787 14.6635 10.4387 15.9412 10.4387H28.3645C29.0246 10.4387 29.5609 9.90248 29.5609 9.24229C29.5609 8.58215 29.0247 8.04587 28.3645 8.04587H15.9412C14.6656 8.04587 13.6256 7.0079 13.6256 5.73026V4.87512C13.6256 3.59951 14.6635 2.55951 15.9412 2.55951H36.1198C37.3954 2.55951 38.4354 3.59748 38.4354 4.87512V5.73026C38.4354 7.00587 37.3974 8.04587 36.1198 8.04587C36.0406 8.04587 35.9857 8.05197 35.9431 8.06416C35.3662 8.14947 34.9234 8.64307 34.9234 9.24227C34.9234 9.85977 35.3926 10.3615 35.9918 10.4265C36.0284 10.4346 36.067 10.4387 36.1198 10.4387C37.3954 10.4387 38.4354 11.4787 38.4354 12.7563V13.6094C38.4354 14.887 37.3974 15.927 36.1198 15.927H23.3736C22.7134 15.927 22.1771 16.4633 22.1771 17.1235C22.1771 17.7836 22.7134 18.3199 23.3736 18.3199H36.1198C37.3954 18.3199 38.4354 19.3578 38.4354 20.6355V21.4297C37.9235 22.6525 31.9235 25.4698 30.2964 25.4698C29.6362 25.4698 29.1 26.006 29.1 26.6662C29.1 26.8694 29.1568 27.0562 29.2442 27.2248L22.8196 27.2269C22.9089 27.0603 22.9638 26.8714 22.9638 26.6683C22.9638 26.0081 22.4276 25.4719 21.7674 25.4719C20.1383 25.4698 14.1379 22.6525 13.6263 21.4297L13.6256 21.4297ZM17.0807 49.6075V39.0208H34.9229V49.6075H17.0807ZM40.8769 49.6075H37.3161V37.8243C37.3161 37.1642 36.7799 36.6279 36.1197 36.6279H15.8865C15.2264 36.6279 14.6901 37.1641 14.6901 37.8243V49.6075H11.1862V33.0242H29.4735C30.1337 33.0242 30.67 32.488 30.67 31.8278C30.67 31.1676 30.1337 30.6313 29.4735 30.6313H18.6305V30.0849C18.6305 29.827 18.8397 29.6177 19.0977 29.6177H32.9609C33.2189 29.6177 33.4301 29.827 33.4301 30.0849V31.5941C33.4301 31.6348 33.4382 31.6733 33.4423 31.7099C33.4382 31.7485 33.4301 31.7871 33.4301 31.8277C33.4301 32.4879 33.9663 33.0241 34.6265 33.0241H40.8769L40.8769 49.6075Z" fill="url(#paint0_linear_27_83)"/>
<path d="M23.3735 40.6796C22.7133 40.6796 22.1771 41.2158 22.1771 41.876V43.9662C22.1771 44.6263 22.7133 45.1626 23.3735 45.1626C24.0337 45.1626 24.5699 44.6264 24.5699 43.9662V41.876C24.5699 41.2159 24.0357 40.6796 23.3735 40.6796Z" fill="url(#paint1_linear_27_83)"/>
<path d="M28.5776 40.6796C27.9175 40.6796 27.3812 41.2158 27.3812 41.876V43.9662C27.3812 44.6263 27.9174 45.1626 28.5776 45.1626C29.2378 45.1626 29.7741 44.6264 29.7741 43.9662V41.876C29.7741 41.2159 29.2399 40.6796 28.5776 40.6796Z" fill="url(#paint2_linear_27_83)"/>
<defs>
<linearGradient id="paint0_linear_27_83" x1="26.0298" y1="0.166626" x2="26.0298" y2="51.9978" gradientUnits="userSpaceOnUse">
<stop stop-color="#3391FF"/>
<stop offset="1" stop-color="#7636FE"/>
</linearGradient>
<linearGradient id="paint1_linear_27_83" x1="23.3735" y1="40.6796" x2="23.3735" y2="45.1626" gradientUnits="userSpaceOnUse">
<stop stop-color="#3391FF"/>
<stop offset="1" stop-color="#7636FE"/>
</linearGradient>
<linearGradient id="paint2_linear_27_83" x1="28.5776" y1="40.6796" x2="28.5776" y2="45.1626" gradientUnits="userSpaceOnUse">
<stop stop-color="#3391FF"/>
<stop offset="1" stop-color="#7636FE"/>
</linearGradient>
</defs>
</svg>
